<svg width="54" height="42" fill="none" xmlns="http://www.w3.org/2000/svg"><g clip-path="url(#a)"><path d="M25.323 5.913a2.715 2.715 0 0 1 3.354 0l.845.666c.713.563 1.669.73 2.535.441l1.024-.34a2.704 2.704 0 0 1 3.152 1.131l.563.91a2.693 2.693 0 0 0 2.229 1.27l1.08.026a2.676 2.676 0 0 1 2.57 2.127l.213 1.046a2.66 2.66 0 0 0 1.655 1.945l1.006.389a2.645 2.645 0 0 1 1.677 2.865l-.162 1.055a2.63 2.63 0 0 0 .88 2.387l.812.704a2.625 2.625 0 0 1 .582 3.259l-.518.936a2.619 2.619 0 0 0 0 2.54l.518.936a2.625 2.625 0 0 1-.582 3.259l-.811.704a2.63 2.63 0 0 0-.88 2.387l.161 1.054a2.645 2.645 0 0 1-1.677 2.866l-1.006.389a2.66 2.66 0 0 0-1.655 1.945l-.213 1.046a2.676 2.676 0 0 1-2.57 2.127l-1.08.025c-.914.022-1.754.5-2.23 1.27l-.562.91a2.704 2.704 0 0 1-3.152 1.133l-1.024-.341a2.715 2.715 0 0 0-2.536.44l-.844.667a2.715 2.715 0 0 1-3.354 0l-.844-.666a2.715 2.715 0 0 0-2.535-.441l-1.025.34a2.704 2.704 0 0 1-3.152-1.131l-.562-.91a2.693 2.693 0 0 0-2.23-1.27l-1.08-.026a2.677 2.677 0 0 1-2.57-2.127l-.213-1.046a2.66 2.66 0 0 0-1.654-1.945l-1.007-.389a2.645 2.645 0 0 1-1.677-2.866l.162-1.054a2.63 2.63 0 0 0-.88-2.387l-.811-.704a2.625 2.625 0 0 1-.583-3.26l.518-.935a2.619 2.619 0 0 0 0-2.54l-.518-.936a2.625 2.625 0 0 1 .583-3.259l.81-.704a2.63 2.63 0 0 0 .881-2.387l-.162-1.055a2.645 2.645 0 0 1 1.677-2.865l1.007-.389a2.66 2.66 0 0 0 1.654-1.945l.213-1.046a2.676 2.676 0 0 1 2.57-2.127l1.08-.025a2.693 2.693 0 0 0 2.23-1.27l.563-.91a2.704 2.704 0 0 1 3.151-1.133l1.024.341a2.715 2.715 0 0 0 2.536-.441l.844-.666Z" fill="#FFE566"/><path fill-rule="evenodd" clip-rule="evenodd" d="M29.476 7.225a3.246 3.246 0 1 0-6.402 1.08c.637 3.777.554 5.979-.037 7.67-.58 1.661-1.811 3.288-4.509 5.553a3.247 3.247 0 0 0 2.153 5.732l.014.064.6-.135.014-.003-.614.139 1.426 6.334 17.683-3.98a3.247 3.247 0 0 0-1.426-6.335l-17.024 3.832.014-.003 18.964-4.27a3.247 3.247 0 0 0-1.426-6.334l-10.008 2.253c.096-.23.185-.465.268-.704 1.136-3.248 1.008-6.759.31-10.893Zm7.722 23.04L22.122 33.66l1.426 6.334L38.624 36.6a3.247 3.247 0 0 0-1.426-6.334Z" fill="#FFB155"/><path fill-rule="evenodd" clip-rule="evenodd" d="M33.678 19.212a.974.974 0 0 1 1.376.055c.338.365.586.822.703 1.34a2.913 2.913 0 0 1-.061 1.512.974.974 0 0 1-1.86-.581.966.966 0 0 0 .02-.503.965.965 0 0 0-.233-.446.974.974 0 0 1 .055-1.377Zm.087 6.304a.974.974 0 0 1 1.376.055c.338.365.587.822.703 1.34a2.913 2.913 0 0 1-.06 1.512.974.974 0 0 1-1.86-.581.966.966 0 0 0 .02-.503.965.965 0 0 0-.233-.446.974.974 0 0 1 .054-1.377ZM35.3 32.19a.974.974 0 0 0-1.43 1.322c.111.12.194.271.233.446.04.175.03.346-.02.503a.974.974 0 1 0 1.86.581c.148-.475.177-.994.06-1.512a2.914 2.914 0 0 0-.703-1.34Z" fill="#FFBE71"/><path fill-rule="evenodd" clip-rule="evenodd" d="M12.508 20.516c-.7.157-1.14.852-.982 1.552l4.421 19.637c.158.7.853 1.139 1.552.981l4.434-.998a1.948 1.948 0 0 0 1.473-2.328L19.27 20.99a1.948 1.948 0 0 0-2.328-1.473l-4.434.999Zm7.097 19.7a1.948 1.948 0 1 0-.856-3.8 1.948 1.948 0 0 0 .856 3.8Z" fill="#FF6B6B"/></g><defs><clipPath id="a"><path fill="#fff" d="M0 0h54v42H0z"/></clipPath></defs></svg>